<svg aria-hidden="true" style="position: absolute; width: 0; height: 0; overflow: hidden;" version="1.1" xmlns="http://www.w3.org/2000/svg" xmlns:xlink="http://www.w3.org/1999/xlink">
<defs>
<symbol id="icon-close" viewBox="0 0 32 32">
<path d="M6.365 2.121l24.042 24.042c1.172 1.172 1.172 3.071 0 4.243s-3.071 1.172-4.243 0l-24.042-24.042c-1.172-1.172-1.172-3.071 0-4.243s3.071-1.172 4.243 0z"></path>
<path d="M2.121 26.163l24.042-24.042c1.172-1.172 3.071-1.172 4.243 0s1.172 3.071 0 4.243l-24.042 24.042c-1.172 1.172-3.071 1.172-4.243 0s-1.172-3.071 0-4.243z"></path>
</symbol>
<symbol id="icon-burger" viewBox="0 0 64 32">
<path d="M4.8 0h54.4c2.651 0 4.8 2.149 4.8 4.8s-2.149 4.8-4.8 4.8h-54.4c-2.651 0-4.8-2.149-4.8-4.8s2.149-4.8 4.8-4.8z"></path>
<path d="M4.8 22.4h54.4c2.651 0 4.8 2.149 4.8 4.8s-2.149 4.8-4.8 4.8h-54.4c-2.651 0-4.8-2.149-4.8-4.8s2.149-4.8 4.8-4.8z"></path>
</symbol>
<symbol id="icon-arrow-left" viewBox="0 0 37 32">
<path d="M2.286 14.057c-1.073 0-1.943 0.87-1.943 1.943s0.87 1.943 1.943 1.943v-3.886zM35.659 17.374c0.759-0.759 0.759-1.989 0-2.748l-12.364-12.364c-0.759-0.759-1.989-0.759-2.748 0s-0.759 1.989 0 2.748l10.99 10.99-10.99 10.99c-0.759 0.759-0.759 1.989 0 2.748s1.989 0.759 2.748 0l12.364-12.364zM2.286 17.943h32v-3.886h-32v3.886z"></path>
</symbol>
</defs>
</svg>